<svg width="128" height="24" viewBox="0 0 128 24" fill="none" xmlns="http://www.w3.org/2000/svg">
<path d="M0.736 23H5.524V15.048H11.516V11.324H5.524V7.18H13.532V3.344H0.736V23ZM16.0485 23H20.8365V7.376H16.0485V23ZM18.4565 5.752C20.1365 5.752 21.2845 4.604 21.2845 3.176C21.2845 1.72 20.1365 0.571998 18.4565 0.571998C16.7485 0.571998 15.6005 1.72 15.6005 3.176C15.6005 4.604 16.7485 5.752 18.4565 5.752ZM25.0623 17.568C25.0623 21.628 27.3303 23 30.5783 23H33.0143V18.94H31.3063C30.2423 18.94 29.8503 18.548 29.8503 17.624V11.352H32.9863V7.376H29.8503V3.568H25.0623V7.376H23.1583V11.352H25.0623V17.568Z" fill="#7000FF"/>
<path d="M35.6813 23H40.4693V15.048H46.4613V11.324H40.4693V7.18H48.4773V3.344H35.6813V23ZM66.4218 7.376H61.6338V15.86C61.6338 17.988 60.4578 19.164 58.6098 19.164C56.8178 19.164 55.6138 17.988 55.6138 15.86V7.376H50.8538V16.504C50.8538 20.676 53.2898 23.168 56.9018 23.168C59.0018 23.168 60.6818 22.216 61.6338 20.872V23H66.4218V7.376ZM82.545 18.464C82.461 12.64 74.005 14.404 74.005 11.912C74.005 11.156 74.621 10.708 75.741 10.708C77.085 10.708 77.897 11.408 78.037 12.472H82.461C82.153 9.392 79.913 7.152 75.881 7.152C71.793 7.152 69.525 9.336 69.525 11.996C69.525 17.736 78.037 15.916 78.037 18.436C78.037 19.136 77.393 19.696 76.161 19.696C74.845 19.696 73.865 18.968 73.753 17.876H69.021C69.245 20.9 72.045 23.224 76.217 23.224C80.137 23.224 82.545 21.18 82.545 18.464ZM85.4743 23H90.2623V7.376H85.4743V23ZM87.8823 5.752C89.5623 5.752 90.7103 4.604 90.7103 3.176C90.7103 1.72 89.5623 0.571998 87.8823 0.571998C86.1743 0.571998 85.0263 1.72 85.0263 3.176C85.0263 4.604 86.1743 5.752 87.8823 5.752ZM109.02 15.188C109.02 10.232 105.492 7.152 100.9 7.152C96.3361 7.152 92.7801 10.232 92.7801 15.188C92.7801 20.144 96.2521 23.224 100.844 23.224C105.436 23.224 109.02 20.144 109.02 15.188ZM97.6521 15.188C97.6521 12.528 99.1641 11.296 100.9 11.296C102.58 11.296 104.148 12.528 104.148 15.188C104.148 17.82 102.552 19.08 100.844 19.08C99.1081 19.08 97.6521 17.82 97.6521 15.188ZM122.34 23H127.1V13.872C127.1 9.672 124.692 7.208 121.08 7.208C118.98 7.208 117.3 8.132 116.348 9.448V7.376H111.56V23H116.348V14.516C116.348 12.388 117.524 11.212 119.344 11.212C121.164 11.212 122.34 12.388 122.34 14.516V23Z" fill="black"/>
</svg>
