<svg width="320" height="139" viewBox="0 0 320 139" fill="none" xmlns="http://www.w3.org/2000/svg">
<rect y="88" width="320" height="51" fill="#8A2FFF"/>
<path d="M77.3268 64.841H256.42C256.507 64.841 256.59 64.8047 256.651 64.7399C256.712 64.6751 256.747 64.5873 256.747 64.4957C256.747 64.4041 256.712 64.3163 256.651 64.2515C256.59 64.1868 256.507 64.1504 256.42 64.1504H77.3268C77.2401 64.1504 77.157 64.1868 77.0957 64.2515C77.0344 64.3163 77 64.4041 77 64.4957C77 64.5873 77.0344 64.6751 77.0957 64.7399C77.157 64.8047 77.2401 64.841 77.3268 64.841Z" fill="#D1D3D4"/>
<path d="M99.1448 77.3691H234.595L249.145 101.563H84.6016L99.1448 77.3691Z" fill="white"/>
<path d="M84.6016 101.909H249.145C249.203 101.909 249.26 101.893 249.31 101.861C249.359 101.829 249.4 101.784 249.426 101.729C249.455 101.677 249.47 101.617 249.47 101.557C249.47 101.496 249.455 101.436 249.426 101.384L234.85 77.1901C234.821 77.1415 234.78 77.1014 234.732 77.0737C234.684 77.0459 234.631 77.0313 234.576 77.0312H99.1448C99.0901 77.0313 99.0363 77.0459 98.9884 77.0737C98.9404 77.1014 98.8998 77.1415 98.8702 77.1901L84.3271 101.363C84.2984 101.416 84.2833 101.475 84.2833 101.536C84.2833 101.596 84.2984 101.656 84.3271 101.708C84.3504 101.766 84.3885 101.815 84.4371 101.85C84.4856 101.886 84.5427 101.906 84.6016 101.909ZM248.576 101.218H85.1703L99.3016 77.7357H234.419L248.576 101.218Z" fill="#D1D3D4"/>
<path d="M200.064 90.1125C200.064 90.1125 208.764 89.0074 209.908 84.4007C211.052 79.794 204.784 36.2066 204.784 36.2066C204.784 36.2066 210.307 18.8711 208.111 20.7704C205.914 22.6697 195.117 36.0063 195.901 37.1183C196.715 38.1582 197.588 39.1453 198.515 40.0743L197.287 76.4996L200.064 90.1125Z" fill="white"/>
<path d="M200.065 90.4577H200.104C200.47 90.4094 209.039 89.2629 210.222 84.4904C211.353 79.9252 205.496 38.9554 205.104 36.2411C206.901 30.6053 209.679 21.1433 208.66 20.3559C208.509 20.2454 208.248 20.1764 207.895 20.4872C206.516 21.6751 194.509 35.7369 195.626 37.3116C196.41 38.3265 197.248 39.2928 198.136 40.2055L196.94 76.4995C196.937 76.5271 196.937 76.5549 196.94 76.5824L199.718 90.2229C199.742 90.2981 199.789 90.3624 199.852 90.4052C199.915 90.4479 199.99 90.4665 200.065 90.4577ZM208.294 21.0466C208.477 22.3727 206.549 29.5624 204.463 36.096C204.447 36.15 204.447 36.2079 204.463 36.2618C204.522 36.6969 210.712 79.8354 209.601 84.3178C208.647 88.1717 201.842 89.4839 200.333 89.7256L197.594 76.4443L198.777 40.088C198.778 40.039 198.769 39.9903 198.751 39.9452C198.733 39.9 198.706 39.8592 198.672 39.8256C197.773 38.9061 196.924 37.933 196.13 36.911C196.012 35.585 205.934 23.1048 208.294 21.0466V21.0466Z" fill="#231F20"/>
<path d="M137.715 49.46C132.95 62.9416 128.002 77.694 128.002 77.694C128.002 77.694 117.329 80.947 116.479 82.1074C115.257 83.7787 131.604 82.1074 131.604 82.1074C136.728 72.2517 143.454 59.7577 148.598 49.46H137.715Z" fill="white"/>
<path d="M120.257 83.1923C123.845 83.1923 128.885 82.7295 131.63 82.4464C131.683 82.4427 131.734 82.4249 131.778 82.3947C131.823 82.3645 131.86 82.3229 131.885 82.2737C133.584 79.0069 135.46 75.45 137.395 71.7826C141.356 64.2752 145.454 56.5122 148.899 49.6194C148.926 49.5677 148.941 49.5095 148.941 49.4502C148.941 49.3909 148.926 49.3327 148.899 49.281C148.869 49.2305 148.828 49.1889 148.778 49.1599C148.729 49.1309 148.674 49.1155 148.618 49.1152H137.722C137.656 49.1157 137.591 49.1369 137.536 49.1763C137.482 49.2157 137.439 49.2713 137.415 49.3362C132.976 61.9062 128.323 75.7401 127.761 77.4115C125.636 78.0607 117.074 80.7405 116.231 81.8939C116.159 81.9793 116.113 82.086 116.1 82.1996C116.087 82.3132 116.108 82.4283 116.159 82.5293C116.407 83.0196 118.061 83.1923 120.257 83.1923ZM131.369 81.811C124.832 82.4671 117.858 82.8055 116.78 82.2737C117.721 81.4173 124.113 79.2555 128.061 78.0538C128.112 78.039 128.158 78.011 128.196 77.9723C128.233 77.9337 128.261 77.8857 128.277 77.8328C128.329 77.6877 133.225 63.1011 137.911 49.8335H148.069C144.676 56.5881 140.689 64.1509 136.826 71.4718C134.924 75.0563 133.074 78.5718 131.401 81.7833L131.369 81.811Z" fill="#231F20"/>
<path d="M198.594 90.8445C198.594 90.8445 207.346 91.3901 209.241 87.0735C211.137 82.7569 212.3 38.686 212.3 38.686C212.3 38.686 220.66 22.6628 218.183 24.1201C215.706 25.5774 202.829 36.6693 203.411 37.9332C204.024 39.0882 204.701 40.2044 205.437 41.276L198.143 76.8794L198.594 90.8445Z" fill="white"/>
<path d="M199.594 91.217C202.006 91.217 207.947 90.8372 209.535 87.2181C211.411 82.9429 212.555 41.5242 212.627 38.7754C215.34 33.5747 219.706 24.7895 218.791 23.8295C218.667 23.6914 218.425 23.5809 218.02 23.8295C216.464 24.7412 202.287 36.3166 203.11 38.0778C203.703 39.222 204.357 40.3289 205.071 41.393L197.809 76.8444C197.806 76.8719 197.806 76.8998 197.809 76.9273L198.247 90.8579C198.249 90.9441 198.282 91.0264 198.339 91.088C198.396 91.1496 198.473 91.1859 198.555 91.1894C198.646 91.1963 199.019 91.217 199.594 91.217ZM218.32 24.4304C218.274 25.7703 215.17 32.4766 212.013 38.5198C211.99 38.567 211.976 38.6188 211.974 38.6718C211.974 39.1138 210.79 82.7288 208.941 86.928C207.352 90.5471 200.444 90.554 198.908 90.5125L198.483 76.9342L205.764 41.3791C205.773 41.3317 205.774 41.2828 205.765 41.2354C205.756 41.1879 205.738 41.1428 205.712 41.1029C204.98 40.0282 204.308 38.9098 203.699 37.7532C203.784 36.4409 215.653 26.0051 218.32 24.4304V24.4304Z" fill="#231F20"/>
<path d="M167.527 9.18769C169.088 9.36506 170.598 9.87741 171.965 10.6933C174.357 12.0332 176.612 14.1466 177.05 16.9714C177.403 19.2575 176.501 21.5505 175.39 23.5534C174.279 25.5563 172.932 27.4418 172.266 29.645C171.599 31.8482 171.776 34.5486 173.39 36.1164C171.226 34.9838 169.017 33.8235 167.305 32.0208C166.232 31.0207 165.555 29.6297 165.409 28.1255C165.459 26.8937 165.788 25.6927 166.37 24.6239C167.115 22.9732 167.906 21.3018 168.083 19.4854C168.259 17.669 167.697 15.6522 166.239 14.6508C164.965 13.7944 160.703 13.6908 161.468 11.1975C162.069 9.24294 166.011 9.06337 167.527 9.18769Z" fill="white"/>
<path d="M173.41 36.4407C173.463 36.4408 173.515 36.427 173.562 36.4005C173.609 36.374 173.648 36.3356 173.678 36.2888C173.722 36.2206 173.742 36.1377 173.734 36.0553C173.725 35.9729 173.689 35.8964 173.632 35.8399C171.991 34.2444 172.05 31.5509 172.599 29.7275C173.152 28.1427 173.89 26.637 174.795 25.2452C175.103 24.7341 175.403 24.223 175.691 23.705C177.162 21.0529 177.704 18.8704 177.39 16.8951C176.861 13.4418 173.874 11.3698 172.161 10.3684C170.753 9.52644 169.195 9.00202 167.586 8.82822C166.037 8.69699 161.867 8.82822 161.193 11.0729C161.107 11.3088 161.07 11.5614 161.084 11.8139C161.097 12.0663 161.161 12.3128 161.272 12.5371C161.782 13.5385 163.233 13.9598 164.475 14.3328C165.036 14.4618 165.581 14.6636 166.096 14.9336C167.573 15.9351 167.932 17.9794 167.789 19.4298C167.525 21.1135 166.99 22.737 166.207 24.2299L166.109 24.4509C165.507 25.5701 165.166 26.8251 165.115 28.1114C165.248 29.7056 165.949 31.187 167.076 32.2553C168.847 34.1201 171.089 35.2873 173.253 36.3993C173.302 36.4247 173.355 36.4388 173.41 36.4407ZM166.684 9.50507C166.991 9.50507 167.279 9.50507 167.521 9.50507C169.038 9.67622 170.506 10.1746 171.834 10.9693C173.462 11.8809 176.26 13.87 176.75 17.0056C177.031 18.8289 176.514 20.8457 175.129 23.3459C174.841 23.8569 174.547 24.3611 174.246 24.8653C173.308 26.3072 172.545 27.869 171.978 29.5134C171.382 31.345 171.488 33.3504 172.272 35.1008C170.545 34.2495 168.952 33.1194 167.553 31.7512C166.546 30.8055 165.905 29.499 165.756 28.0838C165.808 26.9072 166.127 25.7611 166.684 24.741L166.782 24.5269C167.601 22.9614 168.159 21.258 168.429 19.492C168.638 17.3302 167.86 15.3066 166.436 14.3466C165.864 14.0362 165.258 13.8041 164.632 13.6559C163.501 13.3244 162.213 12.9653 161.834 12.2055C161.768 12.0622 161.731 11.9058 161.725 11.7464C161.72 11.5871 161.746 11.4282 161.801 11.2801C162.22 9.89183 164.873 9.50507 166.671 9.50507H166.684Z" fill="#231F20"/>
<path d="M165.605 9.67787C166.086 10.6445 166.243 11.7546 166.05 12.8273C165.976 13.5515 165.701 14.2364 165.259 14.7956C164.964 15.1173 164.601 15.3611 164.2 15.5075C163.8 15.6539 163.372 15.6986 162.952 15.6382C162.579 15.6122 162.228 15.4427 161.965 15.1617C161.778 14.895 161.663 14.5801 161.631 14.25C161.291 11.957 163.109 5.14024 165.605 9.67787Z" fill="#231F20"/>
<path d="M163.311 16.0046C163.719 16.008 164.124 15.9234 164.501 15.7559C164.877 15.5885 165.217 15.3418 165.501 15.0308C165.986 14.4213 166.291 13.6742 166.377 12.8829C166.578 11.7309 166.406 10.5407 165.886 9.50554C165.128 8.12422 164.324 7.57861 163.514 7.8894C161.893 8.511 161.063 12.579 161.344 14.3125C161.38 14.7027 161.521 15.0739 161.749 15.383C162.063 15.7365 162.493 15.9491 162.952 15.977C163.07 15.9968 163.191 16.006 163.311 16.0046ZM165.324 9.85087C165.763 10.7501 165.905 11.778 165.729 12.7724C165.665 13.43 165.417 14.0525 165.017 14.5612C164.766 14.8347 164.458 15.043 164.118 15.17C163.778 15.297 163.414 15.3392 163.056 15.2933C162.764 15.2787 162.487 15.1508 162.278 14.9341C162.131 14.7164 162.041 14.4615 162.017 14.1951C161.762 12.5997 162.612 8.98064 163.769 8.53862C164.357 8.31761 164.958 9.13259 165.357 9.85778L165.324 9.85087Z" fill="#231F20"/>
<path d="M155.716 51.6357C155.716 51.6357 160.043 58.9222 164.213 62.3409C164.213 62.3409 157.886 76.6099 153.807 79.2966C153.807 79.2966 145.029 69.4271 142.108 61.4914L155.716 51.6357Z" fill="white"/>
<path d="M153.84 79.6345C153.902 79.635 153.963 79.6183 154.017 79.5861C158.128 76.8719 164.285 63.0656 164.54 62.4785C164.571 62.4076 164.579 62.3276 164.562 62.2513C164.546 62.175 164.506 62.1067 164.448 62.0572C160.337 58.7214 156.036 51.5178 155.99 51.4487C155.968 51.4087 155.937 51.3739 155.901 51.3466C155.865 51.3193 155.825 51.3 155.781 51.2899C155.693 51.2733 155.602 51.2931 155.526 51.3451L141.957 61.2008C141.896 61.2442 141.851 61.3084 141.83 61.3826C141.809 61.4567 141.812 61.5364 141.839 61.6083C144.748 69.5164 153.513 79.4273 153.605 79.5309C153.635 79.5643 153.672 79.5907 153.712 79.6085C153.753 79.6263 153.796 79.6352 153.84 79.6345V79.6345ZM163.841 62.4302C162.991 64.295 157.553 76.0983 153.892 78.8402C152.618 77.376 145.251 68.7083 142.539 61.6083L155.611 52.1187C156.481 53.5207 160.148 59.3292 163.841 62.4302Z" fill="#231F20"/>
<path d="M151.069 23.9334C151.677 24.7415 152.598 25.218 154.206 25.1144C155.524 24.982 156.79 24.5075 157.893 23.7331C160.04 22.2686 161.758 20.1996 162.853 17.7591C163.947 15.3187 164.376 12.6037 164.089 9.91996C163.435 4.47758 158.533 -1.13056 152.977 0.727309C152.039 1.04614 151.177 1.5779 150.454 2.28536C149.73 2.99282 149.161 3.85888 148.788 4.82291C148.42 4.67509 148.02 4.64339 147.636 4.73169C147.252 4.81998 146.9 5.02446 146.624 5.32019C145.147 6.75675 145.147 8.35217 145.84 10.1548C146.984 13.1592 148.415 16.0323 149.428 19.085C150.003 20.8462 150.186 22.7455 151.069 23.9334Z" fill="white"/>
<path d="M153.801 25.4735H154.239C155.616 25.3373 156.938 24.836 158.082 24.0162C160.291 22.5201 162.057 20.398 163.18 17.8921C164.302 15.3862 164.735 12.5974 164.429 9.84395C164.204 8.1419 163.643 6.50877 162.783 5.05018C161.922 3.5916 160.782 2.34005 159.435 1.37648C158.487 0.700597 157.408 0.258975 156.276 0.0844098C155.144 -0.0901558 153.99 0.00681333 152.899 0.36812C151.956 0.67473 151.083 1.18642 150.338 1.87034C149.593 2.55426 148.991 3.39528 148.572 4.3394C148.179 4.25374 147.773 4.27197 147.389 4.39247C147.004 4.51297 146.654 4.732 146.369 5.03006C144.5 6.84649 144.977 8.89775 145.506 10.2791C145.977 11.5153 146.5 12.7516 147.01 13.9465C147.742 15.6455 148.494 17.3997 149.082 19.1955C149.278 19.7687 149.428 20.3696 149.572 20.9497C149.773 22.0935 150.188 23.1832 150.794 24.1544V24.1544C151.158 24.614 151.621 24.9741 152.144 25.2038C152.668 25.4334 153.236 25.526 153.801 25.4735V25.4735ZM155.108 0.665103C156.504 0.687577 157.865 1.13088 159.03 1.94282C160.298 2.84971 161.371 4.02775 162.181 5.4007C162.99 6.77366 163.518 8.31092 163.73 9.91301C164.004 12.531 163.588 15.1782 162.528 17.5622C161.468 19.9462 159.805 21.9742 157.723 23.4223C156.669 24.1759 155.453 24.6388 154.187 24.7691C152.834 24.8588 151.932 24.5204 151.33 23.7193C150.785 22.8155 150.407 21.8098 150.219 20.7563C150.075 20.1624 149.918 19.5546 149.722 18.9537C149.121 17.1373 148.363 15.3623 147.631 13.6495C147.121 12.4615 146.598 11.2322 146.127 10.0028C145.389 8.06205 145.605 6.72218 146.833 5.52043C147.062 5.27427 147.353 5.1025 147.672 5.0254C147.99 4.9483 148.323 4.96909 148.631 5.08531C148.672 5.10563 148.716 5.11617 148.762 5.11617C148.807 5.11617 148.851 5.10563 148.892 5.08531C148.934 5.06869 148.972 5.04284 149.004 5.00949C149.035 4.97615 149.06 4.93607 149.075 4.89193C149.43 3.97473 149.971 3.15102 150.659 2.4791C151.348 1.80717 152.169 1.30344 153.062 1.00353C153.724 0.783066 154.414 0.668981 155.108 0.665103V0.665103Z" fill="#231F20"/>
<path d="M147.448 11.2871C147.448 11.2871 144.016 14.1395 144.252 15.065C144.487 15.9905 146.212 16.0388 146.212 16.0388" fill="white"/>
<path d="M146.212 16.4124C146.298 16.4124 146.38 16.3769 146.441 16.3137C146.502 16.2504 146.537 16.1643 146.539 16.0739C146.541 16.0289 146.534 15.984 146.519 15.9418C146.504 15.8996 146.482 15.8609 146.452 15.8281C146.423 15.7953 146.388 15.769 146.349 15.7507C146.31 15.7325 146.268 15.7226 146.225 15.7217C145.742 15.7217 144.696 15.5076 144.565 15.031C144.493 14.6374 145.931 13.0419 147.65 11.5778C147.719 11.5218 147.763 11.4395 147.774 11.3489C147.785 11.2582 147.762 11.1667 147.709 11.0943C147.655 11.0216 147.576 10.9744 147.489 10.9628C147.402 10.9511 147.315 10.976 147.245 11.0321C146.167 11.9369 143.67 14.1401 143.931 15.1761C144.193 16.2121 146.003 16.3985 146.206 16.4055L146.212 16.4124Z" fill="#231F20"/>
<path d="M156.984 26.7725C159.187 28.1538 159.821 31.1512 159.873 33.679C159.978 38.486 159.901 43.293 159.644 48.1C159.533 50.1719 159.919 56.6987 159.919 56.6987C159.919 56.6987 146.781 63.2806 142.14 68.2534C142.14 68.2534 139.107 54.309 137.297 52.0713C134.068 48.0931 132.852 40.2679 135.78 36.7663C140.938 30.5987 148.814 25.6329 148.814 25.6329C151.232 25.9575 146.389 25.3842 148.814 25.6329C151.239 25.8815 154.513 25.3566 156.814 26.6758L156.984 26.7725Z" fill="#7000FF"/>
<path d="M144.872 31.393C148.598 31.8557 155.128 28.1469 155.18 28.0018C155.957 25.4671 156.612 22.8923 157.141 20.2872C157.141 20.2872 154.638 19.4308 154.154 15.7772C153.67 12.1236 150.513 11.4399 149.448 6.62598C147.598 7.37189 147.186 10.1691 146.657 11.9026C145.912 14.3429 145.221 16.7948 144.585 19.2581C144.18 20.8259 147.938 22.1796 148.748 21.9586C147.814 24.2654 147.814 24.2654 144.872 31.393Z" fill="white"/>
<path d="M145.506 31.7728C149.265 31.7728 155.311 28.5336 155.487 28.1192C156.268 25.5716 156.923 22.9827 157.448 20.3631C157.465 20.28 157.453 20.1932 157.413 20.1193C157.373 20.0453 157.309 19.9895 157.232 19.9626C157.141 19.9626 154.919 19.113 154.468 15.7288C154.219 13.864 153.317 12.7383 152.356 11.5365C151.082 10.1458 150.18 8.42265 149.742 6.54307C149.733 6.49527 149.714 6.45037 149.685 6.41198C149.657 6.37359 149.62 6.34279 149.579 6.32206C149.536 6.30161 149.491 6.29102 149.445 6.29102C149.398 6.29102 149.353 6.30161 149.311 6.32206C147.618 7.01271 147.042 9.15376 146.585 10.8735C146.493 11.2119 146.408 11.5642 146.323 11.8197C145.578 14.237 144.879 16.7165 144.238 19.189C144.182 19.4613 144.198 19.7446 144.285 20.0079C144.371 20.2711 144.525 20.504 144.729 20.6808C145.722 21.5697 146.935 22.14 148.226 22.3246C147.461 24.1894 147.258 24.6866 144.539 31.3032C144.517 31.3515 144.505 31.4047 144.505 31.4586C144.505 31.5124 144.517 31.5656 144.539 31.614C144.564 31.66 144.599 31.6991 144.641 31.7279C144.683 31.7568 144.731 31.7745 144.781 31.7797C145.023 31.7941 145.265 31.7918 145.506 31.7728V31.7728ZM154.906 27.7877C154.252 28.209 148.833 31.241 145.356 31.0821L149.056 22.1036C149.081 22.0438 149.09 21.9773 149.081 21.9123C149.072 21.8473 149.045 21.7866 149.003 21.7375C148.963 21.6883 148.91 21.652 148.851 21.6325C148.793 21.6129 148.73 21.6111 148.67 21.627C147.404 21.5486 146.196 21.0398 145.225 20.1767C145.106 20.0837 145.013 19.958 144.956 19.8131C144.9 19.6681 144.882 19.5096 144.905 19.3548C145.559 16.896 146.212 14.4235 146.977 12.0131C147.069 11.723 147.154 11.3915 147.245 11.0462C147.631 9.60959 148.101 7.84151 149.239 7.12322C149.735 8.93118 150.631 10.5884 151.853 11.9578C152.788 13.125 153.592 14.1334 153.814 15.7979C154.232 18.9266 156.043 20.1214 156.749 20.4667C156.533 21.5925 155.657 25.619 154.906 27.7877Z" fill="#231F20"/>
<path d="M145.212 17.4688C145.212 17.4688 146.631 19.2506 148.193 17.6345Z" fill="white"/>
<path d="M146.814 18.6566C147.117 18.6471 147.415 18.5738 147.691 18.441C147.967 18.3082 148.216 18.1185 148.422 17.8831C148.452 17.851 148.476 17.8128 148.493 17.7707C148.51 17.7286 148.518 17.6835 148.518 17.6379C148.518 17.5923 148.51 17.5472 148.493 17.5051C148.476 17.463 148.452 17.4248 148.422 17.3927C148.392 17.3605 148.356 17.335 148.317 17.3176C148.278 17.3001 148.235 17.2911 148.193 17.2911C148.15 17.2911 148.108 17.3001 148.069 17.3176C148.029 17.335 147.994 17.3605 147.964 17.3927C147.811 17.5715 147.625 17.7148 147.416 17.8135C147.208 17.9122 146.983 17.9641 146.755 17.966C146.254 17.9099 145.79 17.6646 145.448 17.2753C145.422 17.2348 145.389 17.2004 145.35 17.1744C145.311 17.1485 145.267 17.1315 145.222 17.1246C145.176 17.1177 145.13 17.121 145.085 17.1344C145.041 17.1478 145 17.1709 144.965 17.2023C144.93 17.2336 144.901 17.2725 144.881 17.3163C144.861 17.3601 144.85 17.4078 144.849 17.4565C144.847 17.5051 144.856 17.5535 144.873 17.5984C144.891 17.6434 144.917 17.6839 144.951 17.7173C145.399 18.2609 146.024 18.6062 146.702 18.6842L146.814 18.6566Z" fill="#231F20"/>
<path d="M148.755 21.9379C148.755 21.9379 150.716 22.5181 152.075 21.4199C152.075 21.4199 150.768 25.1011 147.448 25.1218L148.755 21.9379Z" fill="#231F20"/>
<path d="M147.448 25.4876C150.964 25.4876 152.363 21.5992 152.376 21.5646C152.401 21.4942 152.404 21.4169 152.384 21.3446C152.364 21.2723 152.322 21.2089 152.265 21.1641C152.208 21.1203 152.139 21.0967 152.069 21.0967C151.998 21.0967 151.93 21.1203 151.873 21.1641C150.663 22.1448 148.853 21.6268 148.84 21.6268C148.763 21.603 148.681 21.6095 148.609 21.6451C148.537 21.6807 148.479 21.743 148.448 21.8202L147.14 25.0041C147.12 25.0568 147.112 25.1141 147.117 25.1709C147.123 25.2276 147.142 25.2819 147.173 25.3287C147.203 25.3774 147.243 25.4174 147.291 25.4451C147.339 25.4729 147.393 25.4875 147.448 25.4876ZM151.337 22.2415C150.99 22.9019 150.507 23.4709 149.923 23.9063C149.339 24.3416 148.669 24.6319 147.964 24.7555L148.951 22.3589C149.744 22.5237 150.562 22.4834 151.337 22.2415Z" fill="#231F20"/>
<path d="M148.385 11.2683C148.203 11.2191 148.152 10.7838 148.27 10.296C148.388 9.80823 148.631 9.45265 148.813 9.50181C148.995 9.55097 149.046 9.98625 148.928 10.474C148.81 10.9618 148.567 11.3174 148.385 11.2683Z" fill="#231F20"/>
<path d="M151.749 14.174C152.001 13.5876 152.404 13.0876 152.912 12.7306C153.265 12.3992 153.664 12.1267 154.095 11.9225C154.307 11.8147 154.54 11.7588 154.775 11.7588C155.01 11.7588 155.243 11.8147 155.455 11.9225C155.628 12.0427 155.776 12.2 155.889 12.3844C156.002 12.5689 156.076 12.7762 156.108 12.993C156.173 13.4298 156.141 13.8763 156.017 14.2984C155.764 15.2226 155.288 16.0612 154.634 16.731C153.981 17.4009 153.173 17.8789 152.291 18.1177L152.461 18.021" fill="white"/>
<path d="M152.304 18.4839H152.376C153.316 18.232 154.178 17.7238 154.874 17.0099C155.57 16.296 156.077 15.4016 156.344 14.4159C156.474 13.9426 156.499 13.4437 156.415 12.9586C156.375 12.6912 156.281 12.4361 156.139 12.2108C155.997 11.9855 155.81 11.7953 155.592 11.6533C155.339 11.5126 155.06 11.4339 154.775 11.4232C154.49 11.4124 154.206 11.4698 153.945 11.5911C153.485 11.8092 153.06 12.1003 152.683 12.4545C152.114 12.8454 151.661 13.3985 151.376 14.0499C151.347 14.1415 151.354 14.2413 151.395 14.3274C151.436 14.4136 151.508 14.4789 151.595 14.5092C151.682 14.5394 151.776 14.532 151.858 14.4886C151.939 14.4452 152.001 14.3694 152.03 14.2778C152.282 13.7499 152.669 13.3072 153.147 13.0001C153.473 12.6906 153.841 12.4346 154.239 12.2404C154.407 12.1561 154.592 12.1124 154.778 12.1124C154.965 12.1124 155.149 12.1561 155.317 12.2404C155.454 12.3335 155.569 12.4562 155.657 12.6002C155.745 12.7443 155.803 12.9065 155.827 13.0761C155.88 13.4624 155.851 13.8563 155.742 14.2294C155.517 15.0305 155.112 15.7624 154.563 16.3635C154.013 16.9645 153.335 17.417 152.585 17.6827C152.547 17.6658 152.506 17.6571 152.464 17.6571C152.423 17.6571 152.382 17.6658 152.343 17.6827L152.173 17.7863C152.107 17.8205 152.054 17.8779 152.023 17.9487C151.992 18.0196 151.985 18.0997 152.003 18.1753C152.022 18.2509 152.064 18.3174 152.124 18.3636C152.184 18.4098 152.256 18.4328 152.33 18.4287L152.304 18.4839Z" fill="#231F20"/>
<path d="M153.84 79.2617L164.259 62.3337C164.259 62.3337 170.795 59.1843 175.122 61.0283C178.044 62.2646 179.789 70.8909 179.789 70.8909C188.495 75.6634 198.169 76.9066 198.169 76.9066L198.607 90.844C198.607 90.844 176.214 96.169 153.84 79.2617Z" fill="#231F20"/>
<path d="M189.953 91.9563C192.874 91.9992 195.792 91.7401 198.666 91.1827C198.739 91.1652 198.805 91.1212 198.852 91.0582C198.898 90.9952 198.923 90.9172 198.921 90.8374L198.483 76.893C198.48 76.8106 198.45 76.7318 198.397 76.671C198.344 76.6102 198.273 76.5713 198.195 76.5615C198.097 76.5615 188.58 75.2838 180.064 70.6633C179.802 69.427 178.103 61.9126 175.233 60.7109C170.795 58.8323 164.383 61.885 164.122 62.0162C164.066 62.0438 164.019 62.0868 163.984 62.1406L153.579 79.1031C153.533 79.1779 153.516 79.2685 153.532 79.356C153.548 79.4435 153.595 79.5212 153.664 79.5728C164.241 87.5995 176.93 91.9294 189.953 91.9563ZM198.254 90.5749C195.685 91.0929 174.9 94.6084 154.285 79.2136L164.468 62.6378C165.239 62.2856 171.07 59.7302 174.991 61.3877C177.711 62.5342 179.443 70.9188 179.456 71.0017C179.481 71.1007 179.542 71.1851 179.626 71.2365C187.469 75.5255 196.182 76.9897 197.836 77.2383L198.254 90.5749Z" fill="#231F20"/>
<path d="M156.951 38.368C156.774 37.3564 156.32 36.4222 155.644 35.6813C154.638 34.9403 153.424 34.5801 152.2 34.6591C149.964 34.6591 147.082 35.6053 145.872 37.7602C142.761 43.2855 128.028 87.232 128.028 87.232C128.028 87.232 117.355 90.485 116.505 91.6384C115.283 93.3167 131.63 91.6384 131.63 91.6384C137.114 81.099 144.434 67.5345 149.696 56.8638L150.938 54.3222C151.292 54.7585 151.74 55.0974 152.245 55.3098C152.878 55.5134 153.554 55.5172 154.189 55.3209C154.824 55.1247 155.391 54.7367 155.821 54.2048C159.239 50.3164 158.35 45.0328 157.402 40.2742C157.239 39.7079 157.121 39.0379 156.951 38.368Z" fill="white"/>
<path d="M120.257 92.7294C123.845 92.7294 128.885 92.2667 131.63 91.9835C131.683 91.9798 131.734 91.962 131.778 91.9318C131.823 91.9017 131.86 91.86 131.885 91.8109C133.591 88.5441 135.46 84.9872 137.401 81.3129C141.787 72.9904 146.323 64.3918 149.958 57.0224L150.997 54.9021C151.308 55.2165 151.674 55.4629 152.075 55.6273C152.768 55.8537 153.507 55.8619 154.204 55.6509C154.9 55.44 155.524 55.0189 155.997 54.4394C159.664 50.2609 158.507 44.4525 157.657 40.2049L157.579 39.7836C157.487 39.3071 157.383 38.796 157.259 38.2849C157.066 37.1939 156.562 36.1914 155.814 35.4117C154.758 34.6266 153.482 34.2398 152.193 34.3136H152.16C149.775 34.3136 146.807 35.3358 145.552 37.5804C142.526 42.9814 128.878 83.5506 127.741 86.9486C125.617 87.5979 117.054 90.2776 116.211 91.431C116.139 91.5164 116.093 91.6231 116.081 91.7368C116.068 91.8504 116.088 91.9654 116.139 92.0664C116.407 92.5568 118.061 92.7294 120.257 92.7294ZM131.368 91.3136C124.832 92.0042 117.858 92.3081 116.78 91.7763C117.721 90.9199 124.113 88.7651 128.061 87.5633C128.111 87.5474 128.157 87.519 128.194 87.4806C128.232 87.4421 128.26 87.3947 128.277 87.3423C128.427 86.9072 143.036 43.3888 146.095 37.9326C147.219 35.9228 149.945 35.0112 152.141 35.0043C152.925 35.0043 154.448 35.1217 155.37 35.9436C156.012 36.6306 156.443 37.507 156.605 38.4575V38.4575C156.729 38.9617 156.827 39.459 156.919 39.9217L156.997 40.343C158.017 45.4608 158.67 50.3576 155.5 53.9697C155.253 54.3336 154.929 54.6321 154.554 54.8419C154.179 55.0517 153.764 55.1671 153.34 55.1792C152.916 55.1912 152.495 55.0995 152.11 54.9113C151.725 54.7231 151.387 54.4434 151.121 54.094C151.085 54.0527 151.04 54.0211 150.99 54.0019C150.94 53.9826 150.886 53.9763 150.833 53.9835C150.782 53.9913 150.732 54.0116 150.689 54.0427C150.646 54.0738 150.611 54.115 150.585 54.1631L149.343 56.7047C145.716 64.0602 141.179 72.6589 136.794 80.9744C134.924 84.5866 133.074 88.0951 131.401 91.3136H131.368Z" fill="#231F20"/>
<path d="M150.912 54.668C150.973 54.6682 151.033 54.6501 151.085 54.6159C151.137 54.5817 151.179 54.5328 151.206 54.4746L155.108 45.9726C155.144 45.8901 155.147 45.796 155.118 45.7107C155.089 45.6254 155.029 45.5558 154.951 45.5168C154.913 45.4968 154.871 45.485 154.828 45.4821C154.785 45.4793 154.742 45.4854 154.701 45.5002C154.66 45.5149 154.623 45.538 154.591 45.5681C154.558 45.5983 154.532 45.6348 154.513 45.6757L150.644 54.1777C150.625 54.2179 150.614 54.2618 150.611 54.3066C150.609 54.3515 150.615 54.3964 150.629 54.4389C150.643 54.4813 150.664 54.5204 150.693 54.5538C150.721 54.5872 150.756 54.6143 150.794 54.6335C150.831 54.6538 150.871 54.6655 150.912 54.668V54.668Z" fill="#231F20"/>
<path d="M98.1316 42.1598C98.0797 41.3742 98.2383 40.5891 98.5891 39.8944C98.9343 39.4371 99.255 38.9598 99.55 38.4647C99.9552 37.5462 99.6676 36.4618 99.7656 35.4535C99.8483 34.6071 100.201 33.8155 100.766 33.2088C101.262 32.677 101.91 32.311 102.387 31.7585C103.165 30.8468 103.393 29.5622 103.838 28.4226C104.47 26.8138 105.562 25.4542 106.962 24.5342C106.106 26.3506 108.054 28.6781 107.171 30.4531C106.89 31.0195 106.361 31.4338 106.158 32.0416C105.661 33.4989 107.308 35.0805 106.779 36.524C106.518 37.2147 105.786 37.6636 105.472 38.3473C105.014 39.2728 105.374 40.4193 105.335 41.4346C105.185 42.879 104.519 44.2084 103.472 45.1503C102.857 45.7719 102.164 46.3106 101.511 46.8701C100.713 47.5607 100.38 48.2514 99.6872 47.167C98.7217 45.6918 98.1814 43.9526 98.1316 42.1598V42.1598Z" fill="#D1D3D4"/>
<path d="M97.2493 42.9818C97.5923 41.8876 97.5923 40.7056 97.2493 39.6114C96.7656 38.4235 95.5564 37.5809 95.4126 36.2962C95.3211 35.4605 95.7264 34.6041 95.563 33.7753C95.3996 32.9465 94.7655 32.394 94.2557 31.7655C93.0339 30.3489 92.3073 28.5333 92.1968 26.6201C91.3771 27.6564 90.7155 28.8215 90.2359 30.0734C90.0011 30.6958 89.9043 31.3668 89.953 32.0348C90.0017 32.7029 90.1946 33.3503 90.517 33.9273C90.7222 34.1849 90.8897 34.4736 91.0137 34.7837C91.2556 35.6056 90.5889 36.3722 90.249 37.1457C90.0511 37.5868 89.9692 38.076 90.0117 38.5621C90.0543 39.0481 90.2198 39.5131 90.4909 39.9084C91.1837 40.827 92.5302 41.1792 92.87 42.298C92.9556 42.7154 92.9951 43.1419 92.9877 43.5689C93.061 44.3073 93.3417 45.0057 93.7936 45.5743C94.2456 46.1429 94.8481 46.5557 95.5238 46.7597C96.3473 46.9669 96.3277 46.6285 96.478 45.8964C96.6676 44.9087 97.0271 43.9625 97.2493 42.9818Z" fill="#D1D3D4"/>
<path d="M99.8704 34.9763C100.452 32.8421 100.687 30.6044 101.302 28.4772C101.83 26.8194 102.47 25.2037 103.217 23.6426L100.707 24.7614C99.8629 25.0215 99.1348 25.5924 98.6546 26.3707C98.001 27.8211 99.1775 29.672 98.4847 31.1017C98.1839 31.566 97.8518 32.0068 97.4912 32.4208C96.7526 33.519 96.8375 35.0246 97.2755 36.3023C97.4454 36.848 98.2102 39.6866 98.8899 38.8923C99.1579 38.5815 99.1841 37.4074 99.2952 36.9723C99.4716 36.2954 99.6873 35.6462 99.8704 34.9763Z" fill="#D1D3D4"/>
<path d="M98.4977 63.3765C99.001 59.8818 100.563 47.5673 100.583 47.443L100.151 47.3809C100.151 47.5052 98.5696 59.8127 98.0663 63.3074L98.4977 63.3765Z" fill="#D1D3D4"/>
<path d="M97.9094 66.6708H98.3408C98.3408 62.5269 96.6806 46.6417 95.7263 45.5781L95.4061 45.8889C96.0401 46.6141 97.8702 60.9936 97.9094 66.6708Z" fill="#D1D3D4"/>
<path d="M97.0597 65.8837H97.4911C97.1185 56.9397 98.916 38.1538 98.9291 37.9673L98.4977 37.9189C98.4781 38.0916 96.6806 56.9051 97.0597 65.8837Z" fill="#D1D3D4"/>
<path d="M102.818 54.958H93.4779L94.1316 64.9449C94.1846 65.7786 94.5355 66.5598 95.1131 67.1305C95.6908 67.7011 96.4521 68.0185 97.2428 68.0184H99.0272C99.8187 68.0186 100.581 67.7015 101.159 67.131C101.738 66.5605 102.09 65.7792 102.145 64.9449L102.818 54.958Z" fill="white"/>
<path d="M97.2231 68.3634H99.0271C99.9 68.3607 100.74 68.0099 101.378 67.3811C102.017 66.7524 102.407 65.8921 102.472 64.9723L103.125 54.9784C103.128 54.9304 103.122 54.8822 103.106 54.837C103.09 54.7918 103.066 54.7506 103.034 54.716C103.004 54.6823 102.967 54.6557 102.927 54.6378C102.886 54.62 102.842 54.6113 102.798 54.6124H93.4582C93.4134 54.6116 93.3688 54.6204 93.3273 54.6382C93.2857 54.656 93.248 54.6824 93.2164 54.716C93.1565 54.7883 93.126 54.8826 93.1314 54.9784L93.785 64.9723C93.8477 65.8915 94.2368 66.7518 94.8744 67.3806C95.5119 68.0095 96.3509 68.3606 97.2231 68.3634V68.3634ZM102.452 55.3031L101.798 64.9239C101.749 65.6716 101.434 66.3718 100.916 66.8841C100.399 67.3965 99.7167 67.6832 99.0075 67.6866H97.2035C96.4944 67.6847 95.8125 67.3983 95.2956 66.8855C94.7787 66.3726 94.4654 65.6715 94.419 64.9239L93.7654 55.3031H102.452Z" fill="#D1D3D4"/>
</svg>
