<svg width="284" height="150" viewBox="0 0 284 150" fill="none" xmlns="http://www.w3.org/2000/svg">
<path d="M0.516357 95.2914H283.484C283.621 95.2914 283.752 95.2379 283.849 95.1427C283.946 95.0476 284 94.9185 284 94.7839C284 94.6493 283.946 94.5202 283.849 94.425C283.752 94.3298 283.621 94.2764 283.484 94.2764H0.516357C0.379425 94.2764 0.248077 94.3298 0.151245 94.425C0.0544128 94.5202 0 94.6493 0 94.7839C0 94.9185 0.0544128 95.0476 0.151245 95.1427C0.248077 95.2379 0.379425 95.2914 0.516357 95.2914Z" fill="#D1D3D4"/>
<path d="M34.9889 113.703H249.001L271.99 149.259H12.0107L34.9889 113.703Z" fill="white"/>
<path d="M12.0107 149.766H271.989C272.081 149.767 272.171 149.743 272.249 149.696C272.328 149.649 272.392 149.582 272.434 149.502C272.479 149.425 272.503 149.338 272.503 149.249C272.503 149.16 272.479 149.072 272.434 148.995L249.404 113.44C249.357 113.368 249.293 113.309 249.217 113.268C249.141 113.228 249.056 113.206 248.97 113.206H34.9889C34.9025 113.206 34.8175 113.228 34.7417 113.268C34.6659 113.309 34.6018 113.368 34.5551 113.44L11.5769 148.965C11.5316 149.042 11.5078 149.129 11.5078 149.218C11.5078 149.307 11.5316 149.395 11.5769 149.472C11.6137 149.556 11.674 149.628 11.7507 149.681C11.8274 149.733 11.9175 149.762 12.0107 149.766ZM271.091 148.751H12.9091L35.2367 114.241H248.722L271.091 148.751Z" fill="#D1D3D4"/>
<path d="M194.442 132.43C194.442 132.43 208.187 130.806 209.995 124.036C211.802 117.266 201.898 53.2095 201.898 53.2095C201.898 53.2095 210.625 27.733 207.155 30.5242C203.685 33.3155 186.624 52.9151 187.863 54.5493C189.15 56.0776 190.53 57.5283 191.994 58.8935L190.053 112.425L194.442 132.43Z" fill="white"/>
<path d="M194.442 132.938H194.504C195.082 132.867 208.621 131.182 210.491 124.168C212.277 117.459 203.024 57.2493 202.404 53.2604C205.244 44.978 209.633 31.0725 208.022 29.9154C207.785 29.753 207.372 29.6515 206.814 30.1082C204.635 31.854 185.664 52.5194 187.43 54.8336C188.667 56.3252 189.991 57.7452 191.396 59.0865L189.506 112.425C189.501 112.465 189.501 112.506 189.506 112.547L193.895 132.593C193.932 132.703 194.007 132.798 194.106 132.861C194.206 132.923 194.324 132.951 194.442 132.938ZM207.444 30.9304C207.733 32.8792 204.687 43.4453 201.392 53.0472C201.367 53.1265 201.367 53.2115 201.392 53.2908C201.485 53.9303 211.265 117.327 209.51 123.915C208.002 129.578 197.251 131.507 194.865 131.862L190.538 112.344L192.408 58.9139C192.409 58.8419 192.395 58.7703 192.366 58.7039C192.338 58.6375 192.296 58.5777 192.242 58.5282C190.821 57.177 189.48 55.7469 188.225 54.2449C188.039 52.2961 203.716 33.9551 207.444 30.9304Z" fill="#231F20"/>
<path d="M95.9301 72.6875C88.4015 92.5003 80.5838 114.181 80.5838 114.181C80.5838 114.181 63.7193 118.961 62.3768 120.667C60.4456 123.123 86.2741 120.667 86.2741 120.667C94.3707 106.182 104.997 87.8211 113.125 72.6875H95.9301Z" fill="white"/>
<path d="M68.3459 122.26C74.0156 122.26 81.9779 121.58 86.3154 121.164C86.3988 121.158 86.4795 121.132 86.55 121.088C86.6204 121.043 86.6782 120.982 86.7181 120.91C89.4032 116.109 92.3671 110.882 95.424 105.492C101.682 94.4589 108.158 83.0503 113.6 72.9206C113.643 72.8447 113.666 72.7591 113.666 72.672C113.666 72.5849 113.643 72.4992 113.6 72.4233C113.553 72.3491 113.488 72.2879 113.41 72.2453C113.332 72.2027 113.245 72.1801 113.156 72.1797H95.9404C95.8358 72.1804 95.7338 72.2116 95.6474 72.2694C95.5609 72.3273 95.494 72.4091 95.455 72.5045C88.4428 90.9775 81.0898 111.308 80.2016 113.764C76.8453 114.718 63.3165 118.657 61.9843 120.352C61.8705 120.477 61.7986 120.634 61.7783 120.801C61.7579 120.968 61.7902 121.137 61.8707 121.285C62.2632 122.006 64.8759 122.26 68.3459 122.26ZM85.9023 120.23C75.575 121.194 64.5558 121.691 62.8518 120.91C64.3389 119.651 74.439 116.474 80.6767 114.708C80.7566 114.686 80.8297 114.645 80.8892 114.588C80.9488 114.532 80.9929 114.461 81.0175 114.383C81.1001 114.17 88.8352 92.7334 96.2399 73.2353H112.288C106.929 83.162 100.629 94.2762 94.5256 105.035C91.5203 110.303 88.5977 115.469 85.9539 120.189L85.9023 120.23Z" fill="#231F20"/>
<path d="M192.118 133.506C192.118 133.506 205.947 134.308 208.941 127.965C211.936 121.621 213.775 56.8536 213.775 56.8536C213.775 56.8536 226.983 33.3056 223.069 35.4473C219.155 37.5889 198.81 53.8898 199.73 55.7473C200.698 57.4447 201.767 59.085 202.931 60.6599L191.406 112.983L192.118 133.506Z" fill="white"/>
<path d="M193.698 134.054C197.509 134.054 206.896 133.495 209.406 128.177C212.37 121.894 214.177 61.0244 214.291 56.9847C218.577 49.3417 225.475 36.4309 224.029 35.0201C223.833 34.8171 223.451 34.6547 222.811 35.0201C220.353 36.3599 197.953 53.3713 199.254 55.9595C200.19 57.641 201.225 59.2678 202.352 60.8315L190.879 112.931C190.874 112.972 190.874 113.013 190.879 113.053L191.571 133.526C191.573 133.653 191.625 133.773 191.715 133.864C191.805 133.955 191.927 134.008 192.056 134.013C192.201 134.023 192.789 134.054 193.698 134.054ZM223.286 35.9031C223.214 37.8722 218.308 47.7279 213.32 56.6091C213.284 56.6785 213.263 56.7545 213.258 56.8324C213.258 57.482 211.389 121.579 208.466 127.75C205.957 133.069 195.041 133.079 192.614 133.018L191.943 113.063L203.447 60.8112C203.462 60.7416 203.462 60.6697 203.448 60.5999C203.434 60.5302 203.405 60.4639 203.365 60.4052C202.209 58.8258 201.147 57.1822 200.184 55.4825C200.318 53.554 219.072 38.2173 223.286 35.9031Z" fill="#231F20"/>
<path d="M143.033 13.5028C145.499 13.7634 147.885 14.5164 150.045 15.7155C153.825 17.6846 157.388 20.7905 158.079 24.9418C158.637 28.3015 157.212 31.6713 155.456 34.6148C153.701 37.5583 151.573 40.3292 150.52 43.5671C149.467 46.8049 149.745 50.7736 152.296 53.0776C148.878 51.413 145.387 49.7078 142.681 47.0587C140.986 45.5888 139.916 43.5447 139.687 41.3341C139.765 39.5238 140.286 37.7588 141.205 36.188C142.382 33.7622 143.632 31.3059 143.91 28.6364C144.189 25.967 143.301 23.0032 140.998 21.5314C138.984 20.2728 132.251 20.1206 133.459 16.4564C134.409 13.584 140.637 13.3201 143.033 13.5028Z" fill="white"/>
<path d="M152.327 53.5544C152.411 53.5545 152.494 53.5342 152.568 53.4953C152.642 53.4563 152.705 53.3999 152.751 53.3311C152.821 53.2309 152.853 53.1091 152.84 52.988C152.826 52.8668 152.769 52.7544 152.678 52.6713C150.086 50.3267 150.179 46.3682 151.047 43.6886C151.92 41.3595 153.086 39.1466 154.517 37.1012C155.002 36.3501 155.477 35.599 155.932 34.8378C158.255 30.9402 159.112 27.7328 158.617 24.8299C157.78 19.7549 153.061 16.7099 150.355 15.2381C148.13 14.0008 145.669 13.2301 143.126 12.9747C140.678 12.7818 134.089 12.9747 133.026 16.2734C132.89 16.6202 132.831 16.9914 132.852 17.3624C132.873 17.7334 132.975 18.0957 133.15 18.4252C133.955 19.897 136.248 20.5161 138.21 21.0642C139.097 21.2538 139.958 21.5504 140.771 21.9473C143.105 23.419 143.673 26.4234 143.446 28.5549C143.029 31.0293 142.183 33.4152 140.947 35.6092L140.792 35.934C139.84 37.5788 139.302 39.4231 139.222 41.3135C139.431 43.6563 140.539 45.8334 142.32 47.4035C145.119 50.144 148.661 51.8593 152.079 53.4935C152.157 53.5308 152.241 53.5515 152.327 53.5544ZM141.701 13.9694C142.186 13.9694 142.64 13.9694 143.022 13.9694C145.42 14.2209 147.74 14.9533 149.838 16.1212C152.41 17.461 156.83 20.3842 157.605 24.9923C158.049 27.6719 157.233 30.6357 155.043 34.31C154.589 35.0611 154.124 35.802 153.649 36.543C152.166 38.662 150.962 40.9573 150.066 43.3739C149.124 46.0657 149.291 49.0128 150.53 51.5853C147.8 50.3341 145.285 48.6733 143.074 46.6625C141.482 45.2727 140.47 43.3527 140.234 41.2729C140.317 39.5438 140.82 37.8594 141.701 36.3603L141.856 36.0456C143.15 33.7449 144.031 31.2417 144.458 28.6463C144.788 25.4693 143.56 22.4954 141.308 21.0845C140.406 20.6284 139.448 20.2873 138.458 20.0695C136.671 19.5823 134.637 19.0545 134.038 17.938C133.933 17.7273 133.875 17.4975 133.866 17.2633C133.857 17.0291 133.898 16.7957 133.986 16.5779C134.647 14.5378 138.84 13.9694 141.68 13.9694H141.701Z" fill="#231F20"/>
<path d="M139.996 14.2229C140.756 15.6435 141.003 17.2748 140.699 18.8513C140.582 19.9157 140.147 20.9223 139.449 21.7441C138.983 22.2168 138.41 22.5751 137.776 22.7902C137.143 23.0053 136.467 23.0711 135.804 22.9824C135.214 22.9441 134.659 22.6949 134.244 22.282C133.949 21.8901 133.767 21.4272 133.717 20.9422C133.18 17.5724 136.051 7.55436 139.996 14.2229Z" fill="#231F20"/>
<path d="M136.372 23.5205C137.017 23.5254 137.656 23.401 138.251 23.155C138.846 22.9089 139.384 22.5463 139.831 22.0893C140.598 21.1936 141.079 20.0957 141.215 18.9327C141.534 17.2397 141.261 15.4906 140.441 13.9693C139.243 11.9393 137.972 11.1375 136.692 11.5942C134.131 12.5077 132.819 18.4861 133.263 21.0337C133.321 21.6071 133.543 22.1527 133.903 22.607C134.4 23.1264 135.08 23.4389 135.804 23.4799C135.991 23.5089 136.181 23.5225 136.372 23.5205ZM139.552 14.4768C140.245 15.7983 140.471 17.309 140.193 18.7703C140.09 19.7367 139.698 20.6515 139.067 21.3991C138.67 21.8011 138.184 22.1073 137.646 22.2939C137.109 22.4806 136.535 22.5426 135.969 22.475C135.507 22.4536 135.07 22.2657 134.74 21.9472C134.507 21.6273 134.365 21.2526 134.327 20.8612C133.924 18.5165 135.267 13.1979 137.094 12.5483C138.024 12.2235 138.974 13.4212 139.604 14.487L139.552 14.4768Z" fill="#231F20"/>
<path d="M124.371 75.8848C124.371 75.8848 131.208 86.593 137.797 91.6173C137.797 91.6173 127.8 112.587 121.356 116.536C121.356 116.536 107.486 102.031 102.87 90.3688L124.371 75.8848Z" fill="white"/>
<path d="M121.407 117.032C121.505 117.033 121.601 117.008 121.686 116.961C128.182 112.972 137.91 92.6823 138.313 91.8196C138.362 91.7152 138.375 91.5977 138.349 91.4856C138.323 91.3735 138.259 91.2731 138.168 91.2004C131.673 86.298 124.877 75.7115 124.805 75.61C124.769 75.5511 124.721 75.5001 124.664 75.4599C124.607 75.4198 124.543 75.3914 124.474 75.3766C124.335 75.3522 124.191 75.3813 124.072 75.4578L102.632 89.9418C102.536 90.0056 102.465 90.0999 102.431 90.2089C102.398 90.3179 102.403 90.435 102.446 90.5407C107.042 102.162 120.891 116.728 121.035 116.88C121.084 116.929 121.141 116.968 121.205 116.994C121.269 117.02 121.338 117.033 121.407 117.032ZM137.208 91.7485C135.865 94.489 127.273 111.835 121.49 115.865C119.476 113.713 107.837 100.975 103.551 90.5407L124.206 76.5946C125.579 78.655 131.373 87.1912 137.208 91.7485Z" fill="#231F20"/>
<path d="M117.028 35.1727C117.989 36.3603 119.445 37.0606 121.986 36.9083C124.068 36.7137 126.068 36.0163 127.81 34.8783C131.203 32.7261 133.918 29.6854 135.647 26.0989C137.377 22.5123 138.053 18.5224 137.6 14.5783C136.568 6.58015 128.822 -1.66165 120.044 1.0687C118.561 1.53726 117.2 2.31874 116.057 3.35843C114.913 4.39812 114.015 5.6709 113.424 7.08765C112.844 6.87041 112.212 6.82383 111.605 6.95359C110.998 7.08335 110.442 7.38385 110.006 7.81845C107.672 9.92965 107.672 12.2743 108.767 14.9235C110.574 19.3387 112.836 23.5611 114.436 28.0474C115.345 30.6357 115.634 33.4269 117.028 35.1727Z" fill="white"/>
<path d="M121.345 37.4362H122.037C124.213 37.236 126.301 36.4993 128.11 35.2946C131.6 33.0959 134.391 29.9772 136.164 26.2945C137.937 22.6117 138.621 18.5133 138.138 14.4668C137.782 11.9654 136.896 9.56537 135.536 7.42182C134.177 5.27826 132.376 3.43897 130.248 2.0229C128.75 1.02961 127.044 0.380594 125.256 0.12405C123.468 -0.132494 121.644 0.010013 119.92 0.540993C118.43 0.991593 117.052 1.74358 115.874 2.74868C114.697 3.75377 113.746 4.98974 113.084 6.37724C112.463 6.25135 111.821 6.27814 111.214 6.45523C110.607 6.63232 110.053 6.9542 109.603 7.39224C106.65 10.0617 107.404 13.0762 108.24 15.1062C108.984 16.9231 109.81 18.7399 110.615 20.4959C111.772 22.9928 112.96 25.5709 113.889 28.2099C114.199 29.0523 114.437 29.9354 114.664 30.788C114.981 32.4689 115.637 34.0704 116.595 35.4976C117.169 36.1731 117.901 36.7022 118.728 37.0398C119.555 37.3773 120.453 37.5134 121.345 37.4362ZM123.411 0.977444C125.616 1.01047 127.766 1.66195 129.607 2.8552C131.61 4.18797 133.306 5.91924 134.585 7.93694C135.864 9.95465 136.698 12.2138 137.033 14.5683C137.466 18.4158 136.809 22.3061 135.134 25.8097C133.459 29.3132 130.832 32.2936 127.542 34.4217C125.877 35.5292 123.956 36.2096 121.955 36.4009C119.817 36.5329 118.392 36.0355 117.442 34.8581C116.58 33.5299 115.984 32.0519 115.686 30.5038C115.459 29.6309 115.211 28.7377 114.901 27.8546C113.951 25.1852 112.753 22.5766 111.597 20.0594C110.791 18.3136 109.965 16.5069 109.221 14.7002C108.054 11.8481 108.395 9.879 110.337 8.1129C110.699 7.75113 111.158 7.49869 111.662 7.38539C112.165 7.27209 112.69 7.30264 113.177 7.47345C113.241 7.50331 113.312 7.51879 113.383 7.51879C113.455 7.51879 113.525 7.50331 113.59 7.47345C113.656 7.44901 113.716 7.41103 113.766 7.36202C113.815 7.31301 113.854 7.25411 113.879 7.18925C114.439 5.84131 115.293 4.63079 116.382 3.64331C117.471 2.65584 118.767 1.91555 120.179 1.4748C121.225 1.1508 122.314 0.983143 123.411 0.977444Z" fill="#231F20"/>
<path d="M111.307 16.5879C111.307 16.5879 105.886 20.7798 106.257 22.1399C106.629 23.5 109.356 23.5711 109.356 23.5711" fill="white"/>
<path d="M109.356 24.1194C109.491 24.1194 109.621 24.0673 109.717 23.9743C109.814 23.8813 109.869 23.7548 109.872 23.622C109.875 23.5559 109.864 23.4898 109.841 23.4278C109.817 23.3658 109.781 23.309 109.735 23.2607C109.689 23.2125 109.633 23.1739 109.572 23.147C109.51 23.1202 109.444 23.1057 109.376 23.1044C108.612 23.1044 106.96 22.7897 106.753 22.0894C106.64 21.5108 108.912 19.1662 111.628 17.0144C111.736 16.9321 111.806 16.8111 111.823 16.678C111.841 16.5448 111.804 16.4103 111.721 16.3039C111.635 16.1971 111.51 16.1276 111.373 16.1106C111.236 16.0935 111.097 16.1301 110.987 16.2125C109.283 17.5422 105.338 20.78 105.751 22.3025C106.164 23.825 109.025 24.0991 109.345 24.1092L109.356 24.1194Z" fill="#231F20"/>
<path d="M126.375 39.3448C129.855 41.3748 130.857 45.7799 130.939 49.4948C131.105 56.5592 130.984 63.6236 130.578 70.688C130.402 73.733 131.012 83.3247 131.012 83.3247C131.012 83.3247 110.254 92.9977 102.922 100.306C102.922 100.306 98.1297 79.8128 95.269 76.5242C90.1674 70.6778 88.2465 59.1779 92.8731 54.0318C101.021 44.9679 113.466 37.67 113.466 37.67C117.287 38.1471 109.634 37.3046 113.466 37.67C117.297 38.0354 122.471 37.264 126.106 39.2027L126.375 39.3448Z" fill="#7000FF"/>
<path d="M107.239 46.1352C113.125 46.8153 123.442 41.3647 123.525 41.1516C124.753 37.4265 125.787 33.6424 126.623 29.814C126.623 29.814 122.667 28.5554 121.903 23.1861C121.139 17.8167 116.151 16.8119 114.468 9.7373C111.545 10.8335 110.894 14.9443 110.058 17.4919C108.881 21.0782 107.789 24.6815 106.784 28.3017C106.144 30.6057 112.082 32.5951 113.363 32.2703C111.886 35.6604 111.886 35.6604 107.239 46.1352Z" fill="white"/>
<path d="M108.24 46.6935C114.178 46.6935 123.731 41.9331 124.01 41.3241C125.244 37.5802 126.278 33.7755 127.108 29.9257C127.135 29.8035 127.115 29.6759 127.052 29.5673C126.989 29.4587 126.888 29.3766 126.767 29.337C126.623 29.337 123.112 28.0885 122.399 23.115C122.007 20.3745 120.581 18.7201 119.063 16.954C117.05 14.9101 115.624 12.3778 114.932 9.61554C114.918 9.5453 114.887 9.4793 114.843 9.42288C114.798 9.36646 114.74 9.3212 114.674 9.29074C114.608 9.26068 114.536 9.24512 114.462 9.24512C114.389 9.24512 114.317 9.26068 114.251 9.29074C111.576 10.3057 110.667 13.4522 109.944 15.9796C109.8 16.4769 109.665 16.9946 109.531 17.3701C108.354 20.9226 107.249 24.5665 106.237 28.2002C106.148 28.6003 106.173 29.0167 106.31 29.4036C106.446 29.7905 106.689 30.1327 107.011 30.3926C108.581 31.6989 110.498 32.537 112.536 32.8083C111.328 35.5488 111.008 36.2796 106.712 46.0033C106.676 46.0743 106.658 46.1525 106.658 46.2317C106.658 46.3108 106.676 46.389 106.712 46.46C106.751 46.5277 106.806 46.5851 106.873 46.6275C106.939 46.6699 107.015 46.696 107.094 46.7036C107.476 46.7247 107.859 46.7214 108.24 46.6935ZM123.091 40.8369C122.058 41.4561 113.497 45.9119 108.003 45.6785L113.848 32.4835C113.889 32.3956 113.903 32.298 113.888 32.2024C113.873 32.1069 113.831 32.0176 113.765 31.9455C113.701 31.8732 113.618 31.8198 113.525 31.7911C113.432 31.7624 113.333 31.7597 113.239 31.7831C111.238 31.6679 109.329 30.9202 107.796 29.6516C107.607 29.5151 107.46 29.3303 107.371 29.1173C107.282 28.9043 107.254 28.6714 107.29 28.4438C108.323 24.8304 109.356 21.1967 110.564 17.6543C110.708 17.228 110.843 16.7408 110.987 16.2333C111.597 14.1221 112.34 11.5237 114.137 10.4681C114.921 13.1251 116.337 15.5606 118.268 17.5731C119.745 19.2885 121.015 20.7704 121.366 23.2165C122.027 27.8145 124.888 29.5704 126.003 30.0779C125.662 31.7324 124.278 37.6498 123.091 40.8369Z" fill="#231F20"/>
<path d="M107.775 25.6729C107.775 25.6729 110.016 28.2915 112.485 25.9164L107.775 25.6729Z" fill="white"/>
<path d="M110.306 27.4178C110.785 27.4038 111.256 27.2961 111.692 27.1009C112.129 26.9057 112.521 26.6269 112.846 26.2809C112.894 26.2338 112.933 26.1776 112.959 26.1158C112.985 26.054 112.999 25.9876 112.999 25.9206C112.999 25.8536 112.985 25.7873 112.959 25.7255C112.933 25.6636 112.894 25.6075 112.846 25.5603C112.799 25.513 112.743 25.4755 112.681 25.4499C112.619 25.4242 112.552 25.411 112.485 25.411C112.417 25.411 112.351 25.4242 112.289 25.4499C112.226 25.4755 112.17 25.513 112.123 25.5603C111.881 25.8231 111.587 26.0337 111.258 26.1787C110.929 26.3237 110.573 26.4 110.213 26.4028C109.422 26.3204 108.688 25.9599 108.147 25.3878C108.107 25.3282 108.054 25.2777 107.993 25.2395C107.931 25.2014 107.862 25.1764 107.79 25.1663C107.718 25.1561 107.645 25.1611 107.575 25.1807C107.505 25.2004 107.44 25.2344 107.384 25.2804C107.329 25.3265 107.284 25.3836 107.252 25.448C107.22 25.5123 107.203 25.5825 107.201 25.654C107.199 25.7255 107.212 25.7966 107.24 25.8626C107.268 25.9287 107.309 25.9882 107.362 26.0374C108.07 26.8362 109.058 27.3436 110.13 27.4584L110.306 27.4178Z" fill="#231F20"/>
<path d="M113.373 32.2398C113.373 32.2398 116.471 33.0924 118.619 31.4785C118.619 31.4785 116.554 36.8885 111.307 36.9189L113.373 32.2398Z" fill="#231F20"/>
<path d="M111.307 37.4568C116.863 37.4568 119.073 31.7424 119.094 31.6916C119.134 31.5881 119.139 31.4746 119.107 31.3683C119.075 31.262 119.009 31.1688 118.919 31.1029C118.829 31.0386 118.72 31.0039 118.609 31.0039C118.497 31.0039 118.389 31.0386 118.299 31.1029C116.388 32.5442 113.528 31.783 113.507 31.783C113.386 31.748 113.257 31.7575 113.143 31.8098C113.028 31.8622 112.938 31.9537 112.887 32.0672L110.822 36.7463C110.789 36.8237 110.776 36.908 110.785 36.9914C110.794 37.0748 110.825 37.1546 110.874 37.2234C110.92 37.2949 110.984 37.3537 111.06 37.3945C111.136 37.4353 111.221 37.4567 111.307 37.4568ZM117.452 32.6863C116.904 33.6568 116.14 34.4931 115.218 35.1329C114.295 35.7726 113.237 36.1993 112.123 36.3809L113.683 32.8589C114.935 33.1011 116.228 33.0419 117.452 32.6863Z" fill="#231F20"/>
<path d="M112.789 16.5599C112.501 16.4877 112.42 15.848 112.606 15.1311C112.793 14.4142 113.177 13.8917 113.464 13.9639C113.752 14.0362 113.833 14.6759 113.647 15.3927C113.46 16.1096 113.076 16.6322 112.789 16.5599Z" fill="#231F20"/>
<path d="M118.103 20.8307C118.502 19.9689 119.139 19.2341 119.941 18.7094C120.499 18.2224 121.129 17.8219 121.81 17.5218C122.145 17.3635 122.513 17.2813 122.884 17.2812C123.256 17.2812 123.623 17.3635 123.958 17.5218C124.233 17.6984 124.467 17.9297 124.645 18.2007C124.823 18.4717 124.941 18.7764 124.991 19.0951C125.093 19.737 125.043 20.3932 124.847 21.0134C124.447 22.3717 123.694 23.6041 122.662 24.5885C121.63 25.573 120.353 26.2754 118.96 26.6264L119.229 26.4843" fill="white"/>
<path d="M118.981 27.1646H119.094C120.58 26.7944 121.941 26.0475 123.041 24.9984C124.141 23.9493 124.942 22.6348 125.363 21.1862C125.569 20.4906 125.608 19.7575 125.477 19.0446C125.413 18.6515 125.264 18.2766 125.039 17.9455C124.815 17.6144 124.52 17.3349 124.175 17.1262C123.777 16.9194 123.335 16.8038 122.885 16.788C122.434 16.7722 121.986 16.8566 121.573 17.0349C120.846 17.3553 120.174 17.7832 119.58 18.3036C118.68 18.8782 117.964 19.691 117.514 20.6483C117.469 20.7829 117.48 20.9296 117.545 21.0562C117.61 21.1828 117.723 21.2788 117.86 21.3233C117.997 21.3677 118.146 21.3568 118.275 21.293C118.404 21.2293 118.502 21.1178 118.547 20.9832C118.945 20.2074 119.557 19.5568 120.313 19.1055C120.828 18.6507 121.409 18.2744 122.038 17.989C122.304 17.8652 122.595 17.801 122.89 17.801C123.184 17.801 123.475 17.8652 123.742 17.989C123.957 18.1258 124.14 18.3061 124.279 18.5179C124.418 18.7296 124.509 18.968 124.547 19.2171C124.63 19.785 124.584 20.3638 124.413 20.9122C124.057 22.0894 123.418 23.1651 122.549 24.0484C121.681 24.9317 120.61 25.5967 119.425 25.9872C119.364 25.9623 119.299 25.9495 119.234 25.9495C119.168 25.9495 119.103 25.9623 119.043 25.9872L118.774 26.1394C118.669 26.1896 118.585 26.2739 118.536 26.3781C118.487 26.4823 118.476 26.5999 118.505 26.711C118.535 26.8221 118.602 26.9199 118.696 26.9878C118.79 27.0556 118.905 27.0894 119.022 27.0834L118.981 27.1646Z" fill="#231F20"/>
<path d="M121.407 116.484L137.869 91.6064C137.869 91.6064 148.196 86.978 155.033 89.688C159.649 91.5049 162.407 104.182 162.407 104.182C176.163 111.196 191.447 113.023 191.447 113.023L192.139 133.506C192.139 133.506 156.758 141.331 121.407 116.484Z" fill="#231F20"/>
<path d="M178.466 135.14C183.081 135.203 187.692 134.823 192.232 134.003C192.348 133.978 192.452 133.913 192.526 133.82C192.599 133.728 192.638 133.613 192.635 133.496L191.943 113.003C191.939 112.882 191.891 112.766 191.807 112.677C191.724 112.587 191.611 112.53 191.488 112.516C191.333 112.516 176.297 110.638 162.84 103.848C162.427 102.031 159.742 90.9878 155.209 89.2217C148.196 86.4609 138.065 90.9472 137.652 91.14C137.564 91.1805 137.49 91.2437 137.435 91.3227L120.994 116.251C120.922 116.361 120.895 116.494 120.92 116.623C120.945 116.751 121.02 116.866 121.129 116.941C137.841 128.737 157.89 135.101 178.466 135.14ZM191.581 133.11C187.523 133.872 154.682 139.038 122.11 116.413L138.2 92.0535C139.418 91.5358 148.63 87.7804 154.826 90.2164C159.123 91.9013 161.859 104.223 161.88 104.345C161.919 104.491 162.016 104.615 162.148 104.69C174.541 110.993 188.307 113.145 190.92 113.511L191.581 133.11Z" fill="#231F20"/>
<path d="M126.323 56.3862C126.043 54.8996 125.325 53.5266 124.258 52.4379C122.668 51.3489 120.75 50.8195 118.815 50.9357C115.283 50.9357 110.729 52.3262 108.818 55.493C103.903 63.613 80.625 128.197 80.625 128.197C80.625 128.197 63.7606 132.978 62.418 134.673C60.4868 137.14 86.3153 134.673 86.3153 134.673C94.9799 119.184 106.546 99.2497 114.86 83.5679L116.822 79.8327C117.381 80.4739 118.09 80.972 118.888 81.2842C119.888 81.5833 120.955 81.589 121.959 81.3005C122.962 81.012 123.858 80.4419 124.537 79.6602C129.938 73.9457 128.533 66.181 127.036 59.1876C126.778 58.3553 126.592 57.3707 126.323 56.3862Z" fill="white"/>
<path d="M68.3459 136.277C74.0156 136.277 81.9779 135.597 86.3154 135.181C86.3988 135.175 86.4795 135.149 86.5499 135.105C86.6204 135.06 86.6782 134.999 86.7181 134.927C89.4135 130.126 92.3671 124.899 95.4343 119.499C102.364 107.268 109.531 94.6314 115.273 83.8013L116.915 80.6853C117.406 81.1473 117.985 81.5095 118.619 81.751C119.713 82.0838 120.881 82.0959 121.982 81.7858C123.083 81.4757 124.067 80.8569 124.815 80.0052C130.609 73.8645 128.781 65.3283 127.439 59.0861L127.315 58.4669C127.17 57.7666 127.005 57.0155 126.809 56.2644C126.504 54.6611 125.707 53.1878 124.526 52.042C122.858 50.8881 120.842 50.3196 118.805 50.4281H118.753C114.984 50.4281 110.295 51.9303 108.312 55.2291C103.531 63.1664 81.9676 122.787 80.1706 127.781C76.8143 128.735 63.2855 132.674 61.9533 134.369C61.8395 134.494 61.7676 134.651 61.7473 134.818C61.7269 134.985 61.7592 135.154 61.8397 135.302C62.2631 136.023 64.8759 136.277 68.3459 136.277ZM85.9023 134.196C75.575 135.211 64.5558 135.658 62.8518 134.876C64.3389 133.618 74.439 130.451 80.6767 128.685C80.7558 128.661 80.828 128.62 80.8873 128.563C80.9466 128.507 80.9912 128.437 81.0175 128.36C81.255 127.72 104.336 63.7652 109.17 55.7467C110.946 52.7931 115.252 51.4533 118.722 51.4431C119.962 51.4431 122.368 51.6157 123.824 52.8235C124.839 53.8333 125.519 55.1213 125.776 56.5181C125.972 57.2591 126.127 57.9899 126.272 58.6699L126.395 59.2891C128.007 66.8102 129.039 74.0066 124.031 79.315C123.639 79.8498 123.128 80.2885 122.536 80.5968C121.944 80.9051 121.287 81.0748 120.617 81.0925C119.947 81.1102 119.282 80.9754 118.674 80.6988C118.066 80.4221 117.531 80.0111 117.111 79.4977C117.054 79.437 116.983 79.3905 116.904 79.3623C116.825 79.334 116.74 79.3248 116.657 79.3353C116.575 79.3468 116.497 79.3765 116.429 79.4223C116.361 79.468 116.305 79.5286 116.264 79.5992L114.302 83.3344C108.571 94.1442 101.403 106.781 94.4739 119.002C91.5203 124.31 88.5977 129.466 85.9539 134.196H85.9023Z" fill="#231F20"/>
<path d="M116.781 80.3406C116.877 80.3408 116.972 80.3142 117.055 80.264C117.137 80.2137 117.203 80.1418 117.245 80.0564L123.411 67.5617C123.467 67.4405 123.473 67.3022 123.427 67.1768C123.38 67.0514 123.286 66.9491 123.163 66.8918C123.102 66.8624 123.036 66.845 122.968 66.8408C122.9 66.8366 122.832 66.8457 122.768 66.8673C122.703 66.889 122.644 66.923 122.593 66.9672C122.542 67.0115 122.501 67.0652 122.471 67.1253L116.357 79.6199C116.328 79.6791 116.31 79.7436 116.306 79.8095C116.302 79.8754 116.311 79.9414 116.333 80.0038C116.355 80.0662 116.39 80.1236 116.435 80.1727C116.48 80.2218 116.534 80.2616 116.595 80.2898C116.652 80.3196 116.716 80.3369 116.781 80.3406Z" fill="#231F20"/>
<path d="M33.3881 61.9585C33.3061 60.804 33.5567 59.6502 34.111 58.6293C34.6563 57.9571 35.1631 57.2557 35.6291 56.5282C36.2694 55.1783 35.815 53.5847 35.9699 52.1028C36.1006 50.8589 36.6577 49.6956 37.55 48.8041C38.3348 48.0225 39.3572 47.4846 40.1111 46.6726C41.3401 45.3328 41.7015 43.4449 42.4038 41.7701C43.4025 39.4059 45.1286 37.4078 47.3402 36.0557C45.9874 38.7251 49.0649 42.1457 47.6707 44.7542C47.2266 45.5865 46.3901 46.1955 46.07 47.0887C45.2851 49.2304 47.8876 51.5547 47.0511 53.6761C46.638 54.6911 45.4813 55.3508 44.9856 56.3557C44.2627 57.7158 44.8307 59.4007 44.7687 60.8927C44.5329 63.0155 43.4799 64.9692 41.8255 66.3534C40.8547 67.2669 39.76 68.0586 38.7273 68.8808C37.4674 69.8958 36.9407 70.9108 35.846 69.3172C34.3205 67.1492 33.4668 64.5933 33.3881 61.9585Z" fill="#D1D3D4"/>
<path d="M31.9939 63.1664C32.5359 61.5583 32.5359 59.8213 31.9939 58.2132C31.2297 56.4674 29.3192 55.2291 29.092 53.3412C28.9474 52.1131 29.5876 50.8545 29.3295 49.6365C29.0713 48.4185 28.0695 47.6065 27.264 46.6828C25.3335 44.601 24.1856 41.9327 24.0109 39.1211C22.7158 40.644 21.6705 42.3563 20.9127 44.1961C20.5416 45.1108 20.3887 46.0968 20.4657 47.0786C20.5427 48.0604 20.8475 49.0118 21.3568 49.8598C21.6811 50.2384 21.9456 50.6626 22.1417 51.1184C22.5238 52.3262 21.4704 53.4529 20.9334 54.5897C20.6207 55.2379 20.4912 55.9568 20.5585 56.6711C20.6257 57.3855 20.8872 58.0689 21.3155 58.6497C22.4102 59.9996 24.5376 60.5173 25.0746 62.1616C25.2098 62.775 25.2722 63.4017 25.2605 64.0292C25.3764 65.1145 25.8199 66.1408 26.5339 66.9765C27.248 67.8121 28.1999 68.4188 29.2675 68.7185C30.5687 69.023 30.5378 68.5256 30.7753 67.4497C31.0748 65.9983 31.6428 64.6077 31.9939 63.1664Z" fill="#D1D3D4"/>
<path d="M36.135 51.4022C37.0542 48.2659 37.426 44.9773 38.3967 41.8511C39.2313 39.4147 40.2425 37.0403 41.4226 34.7461L37.4569 36.3904C36.1233 36.7726 34.9729 37.6116 34.2142 38.7553C33.1815 40.8868 35.0404 43.607 33.9457 45.7081C33.4704 46.3904 32.9458 47.0383 32.3759 47.6467C31.209 49.2606 31.3432 51.4733 32.0351 53.351C32.3036 54.1529 33.5119 58.3245 34.586 57.1573C35.0094 56.7005 35.0507 54.975 35.2262 54.3356C35.5051 53.3409 35.8459 52.3868 36.135 51.4022Z" fill="#D1D3D4"/>
<path d="M33.9664 93.1392C34.7616 88.0033 37.2298 69.9059 37.2607 69.7232L36.5792 69.6318C36.5792 69.8145 34.08 87.9018 33.2848 93.0377L33.9664 93.1392Z" fill="#D1D3D4"/>
<path d="M33.0369 97.9805H33.7185C33.7185 91.8905 31.0954 68.5455 29.5876 66.9824L29.0816 67.4392C30.0833 68.5049 32.9749 89.6372 33.0369 97.9805Z" fill="#D1D3D4"/>
<path d="M31.6944 96.8239H32.376C31.7873 83.6797 34.6273 56.0717 34.6479 55.7976L33.9664 55.7266C33.9354 55.9803 31.0954 83.6289 31.6944 96.8239Z" fill="#D1D3D4"/>
<path d="M40.7927 80.7666H26.035L27.0678 95.4435C27.1516 96.6687 27.706 97.8168 28.6187 98.6554C29.5313 99.494 30.7342 99.9604 31.9836 99.9603H34.8029C36.0534 99.9606 37.2574 99.4945 38.1718 98.6562C39.0861 97.8178 39.6427 96.6696 39.729 95.4435L40.7927 80.7666Z" fill="white"/>
<path d="M31.9525 100.468H34.8028C36.1819 100.464 37.5087 99.948 38.5178 99.024C39.5268 98.1 40.1438 96.8357 40.2453 95.4839L41.278 80.7969C41.2826 80.7262 41.2721 80.6554 41.2472 80.589C41.2223 80.5226 41.1835 80.462 41.1334 80.4112C41.0857 80.3616 41.028 80.3225 40.964 80.2963C40.8999 80.27 40.831 80.2573 40.7616 80.2589H26.004C25.9331 80.2577 25.8628 80.2706 25.7971 80.2968C25.7315 80.3229 25.6718 80.3619 25.6218 80.4112C25.5273 80.5175 25.4791 80.656 25.4876 80.7969L26.5203 95.4839C26.6193 96.8348 27.2341 98.0991 28.2415 99.0233C29.2489 99.9475 30.5744 100.463 31.9525 100.468ZM40.2143 81.2739L39.1816 95.4129C39.1034 96.5116 38.6054 97.5407 37.7876 98.2937C36.9697 99.0466 35.8925 99.4679 34.7718 99.4729H31.9215C30.8012 99.4701 29.7238 99.0493 28.9071 98.2956C28.0904 97.5419 27.5954 96.5116 27.5221 95.4129L26.4893 81.2739H40.2143Z" fill="#D1D3D4"/>
</svg>
